<svg width="34" height="32" viewBox="0 0 24 22" fill="none" xmlns="http://www.w3.org/2000/svg">
<path d="M1.83942 13.5604C0.992737 9.81928 0.568218 7.94816 1.6307 6.70633C2.69199 5.46338 4.71435 5.46338 8.7579 5.46338H14.838C18.8827 5.46338 20.9027 5.46338 21.9652 6.70633C23.0276 7.94928 22.6031 9.81928 21.7564 13.5604L21.2506 15.7919C20.6763 18.328 20.3897 19.5955 19.4169 20.3397C18.444 21.0839 17.0738 21.0839 14.3332 21.0839H9.26261C6.5221 21.0839 5.15185 21.0839 4.18017 20.3397C3.20613 19.5955 2.9184 18.328 2.3453 15.7919L1.83942 13.5604Z" stroke="black"/>
<path d="M7.08061 11.0418H16.5144M9.43905 14.389H14.1559M18.8728 7.69452L15.3351 1M4.72217 7.69452L8.25983 1" stroke="black" stroke-linecap="round" stroke-linejoin="round"/>
</svg>
