<svg width="24" height="24" viewBox="0 0 24 24" fill="none" xmlns="http://www.w3.org/2000/svg">
<path d="M7.25 12C7.25 11.8011 7.32902 11.6103 7.46967 11.4697C7.61032 11.329 7.80109 11.25 8 11.25H16C16.1989 11.25 16.3897 11.329 16.5303 11.4697C16.671 11.6103 16.75 11.8011 16.75 12C16.75 12.1989 16.671 12.3897 16.5303 12.5303C16.3897 12.671 16.1989 12.75 16 12.75H8C7.80109 12.75 7.61032 12.671 7.46967 12.5303C7.32902 12.3897 7.25 12.1989 7.25 12ZM10 14.25C9.80109 14.25 9.61032 14.329 9.46967 14.4697C9.32902 14.6103 9.25 14.8011 9.25 15C9.25 15.1989 9.32902 15.3897 9.46967 15.5303C9.61032 15.671 9.80109 15.75 10 15.75H14C14.1989 15.75 14.3897 15.671 14.5303 15.5303C14.671 15.3897 14.75 15.1989 14.75 15C14.75 14.8011 14.671 14.6103 14.5303 14.4697C14.3897 14.329 14.1989 14.25 14 14.25H10Z" fill="#1E1E1E"/>
<path fill-rule="evenodd" clip-rule="evenodd" d="M14.665 2.3299C14.8428 2.24099 15.0487 2.22633 15.2373 2.28915C15.426 2.35197 15.582 2.48712 15.671 2.6649L17.484 6.2909C17.9113 6.31157 18.3013 6.3469 18.654 6.3969C19.71 6.5479 20.584 6.8739 21.205 7.6419C21.826 8.4099 21.962 9.3329 21.889 10.3969C21.819 11.4279 21.539 12.7289 21.191 14.3539L20.74 16.4609C20.505 17.5579 20.314 18.4469 20.074 19.1409C19.824 19.8659 19.494 20.4609 18.932 20.9159C18.37 21.3709 17.718 21.5679 16.958 21.6609C16.228 21.7499 15.318 21.7499 14.198 21.7499H9.80199C8.67999 21.7499 7.77099 21.7499 7.04099 21.6609C6.28099 21.5679 5.62899 21.3709 5.06699 20.9159C4.50499 20.4609 4.17499 19.8659 3.92499 19.1419C3.68499 18.4469 3.49499 17.5579 3.25899 16.4619L2.80799 14.3549C2.45999 12.7289 2.18099 11.4279 2.10999 10.3969C2.03699 9.3329 2.17299 8.4109 2.79399 7.6419C3.41399 6.8739 4.28799 6.5479 5.34399 6.3969C5.69733 6.34757 6.08733 6.31224 6.51399 6.2909L8.32999 2.6649C8.41977 2.48853 8.57561 2.35479 8.76356 2.29283C8.95151 2.23087 9.15634 2.2457 9.3334 2.3341C9.51046 2.4225 9.64541 2.5773 9.70883 2.76476C9.77225 2.95223 9.75901 3.15716 9.67199 3.3349L8.21199 6.2519C8.57599 6.2499 8.95899 6.24924 9.36099 6.2499H14.639C15.041 6.2499 15.424 6.25057 15.788 6.2519L14.329 3.3349C14.2401 3.15706 14.2254 2.9512 14.2882 2.76255C14.3511 2.57391 14.4862 2.41793 14.664 2.3289M5.73199 7.8579L5.32899 8.6639C5.28409 8.75211 5.2571 8.84834 5.24956 8.94704C5.24203 9.04573 5.25411 9.14494 5.2851 9.23895C5.31609 9.33295 5.36538 9.41989 5.43014 9.49476C5.49489 9.56962 5.57382 9.63093 5.66238 9.67514C5.75094 9.71935 5.84737 9.7456 5.94612 9.75237C6.04487 9.75913 6.14399 9.74628 6.23775 9.71456C6.33151 9.68284 6.41806 9.63287 6.49242 9.56754C6.56678 9.50221 6.62747 9.4228 6.67099 9.3339L7.45799 7.7599C8.02799 7.7499 8.67799 7.7489 9.42199 7.7489H14.578C15.322 7.7489 15.972 7.7489 16.542 7.7589L17.329 9.3339C17.4188 9.51027 17.5746 9.64401 17.7626 9.70597C17.9505 9.76794 18.1553 9.75311 18.3324 9.66471C18.5095 9.57631 18.6444 9.42151 18.7078 9.23404C18.7713 9.04658 18.758 8.84165 18.671 8.6639L18.268 7.8579L18.442 7.8809C19.326 8.0079 19.759 8.2389 20.039 8.5839C20.319 8.9299 20.453 9.4029 20.392 10.2939C20.33 11.2039 20.076 12.3999 19.712 14.0989L19.282 16.0989C19.035 17.2539 18.862 18.0529 18.656 18.6509C18.456 19.2309 18.252 19.5369 17.989 19.7489C17.727 19.9609 17.384 20.0969 16.777 20.1709C16.148 20.2479 15.33 20.2489 14.149 20.2489H9.84999C8.66999 20.2489 7.85199 20.2479 7.22299 20.1709C6.61499 20.0969 6.27299 19.9609 6.01099 19.7489C5.74799 19.5369 5.54299 19.2299 5.34399 18.6509C5.13699 18.0529 4.96399 17.2539 4.71699 16.0989L4.28799 14.0989C3.92399 12.3989 3.66999 11.2049 3.60799 10.2939C3.54699 9.4029 3.68199 8.9299 3.96099 8.5839C4.24099 8.2389 4.67399 8.0079 5.55799 7.8809L5.73199 7.8579Z" fill="#1E1E1E"/>
</svg>
