<svg width="19" height="19" viewBox="0 0 19 19" fill="none" xmlns="http://www.w3.org/2000/svg">
<path d="M9.5 13C10.4283 13 11.3185 12.6313 11.9749 11.9749C12.6313 11.3185 13 10.4283 13 9.5C13 8.57174 12.6313 7.6815 11.9749 7.02513C11.3185 6.36875 10.4283 6 9.5 6C8.57174 6 7.6815 6.36875 7.02513 7.02513C6.36875 7.6815 6 8.57174 6 9.5C6 10.4283 6.36875 11.3185 7.02513 11.9749C7.6815 12.6313 8.57174 13 9.5 13Z" stroke="white" stroke-width="1.5" stroke-linecap="round" stroke-linejoin="round"/>
<path d="M1.625 13V6C1.625 4.83968 2.08594 3.72688 2.90641 2.90641C3.72688 2.08594 4.83968 1.625 6 1.625H13C14.1603 1.625 15.2731 2.08594 16.0936 2.90641C16.9141 3.72688 17.375 4.83968 17.375 6V13C17.375 14.1603 16.9141 15.2731 16.0936 16.0936C15.2731 16.9141 14.1603 17.375 13 17.375H6C4.83968 17.375 3.72688 16.9141 2.90641 16.0936C2.08594 15.2731 1.625 14.1603 1.625 13Z" stroke="white" stroke-width="1.5"/>
<path d="M14.3125 4.69765L14.3225 4.68665" stroke="white" stroke-width="1.5" stroke-linecap="round" stroke-linejoin="round"/>
</svg>
