<svg width="24" height="21" viewBox="0 0 24 21" fill="none" xmlns="http://www.w3.org/2000/svg">
<path d="M15.5586 9.3039H10.7586V6.15489C10.7586 4.65195 9.76552 3.57842 8.27586 3.57842H7.44828C6.2069 3.57842 5.95862 4.65195 5.87586 5.29606C5.87586 5.36763 5.87586 5.51077 5.7931 5.65391L5.29655 8.73135L4.13793 10.7353V20.7548H13.4897C16.5517 20.7548 19.0345 18.6078 19.0345 15.9598V12.3098C19.0345 10.6637 17.4621 9.3039 15.5586 9.3039ZM0 20.7548V11.451H2.48276V20.7548H0ZM20.5241 5.72548H15.7241V2.57646C15.7241 1.07353 14.731 0 13.2414 0H12.4138C11.1724 0 10.9241 1.07353 10.8414 1.64607C10.8414 1.78921 10.8414 1.86078 10.7586 2.00392L10.6759 2.79117C11.7517 3.50685 12.4138 4.65195 12.4138 6.08332V7.87253H15.5586C18.3724 7.87253 20.6897 9.87645 20.6897 12.3098V15.9598C20.6897 16.246 20.6897 16.5323 20.6069 16.747C22.5931 16.0313 24 14.3137 24 12.3813V8.73135C24 7.08528 22.4276 5.72548 20.5241 5.72548Z" fill="black"/>
</svg>
