<svg width="21" height="21" viewBox="0 0 21 21" fill="none" xmlns="http://www.w3.org/2000/svg">
<path d="M7.91 18.8475C8.75 19.1012 9.59875 19.25 10.5 19.25C12.8206 19.25 15.0462 18.3281 16.6872 16.6872C18.3281 15.0462 19.25 12.8206 19.25 10.5C19.25 9.35093 19.0237 8.21312 18.5839 7.15152C18.1442 6.08992 17.4997 5.12533 16.6872 4.31282C15.8747 3.5003 14.9101 2.85578 13.8485 2.41605C12.7869 1.97633 11.6491 1.75 10.5 1.75C9.35093 1.75 8.21312 1.97633 7.15152 2.41605C6.08992 2.85578 5.12533 3.5003 4.31282 4.31282C2.67187 5.95376 1.75 8.17935 1.75 10.5C1.75 14.2187 4.08625 17.4125 7.385 18.6725C7.30625 17.99 7.2275 16.8612 7.385 16.0825L8.39125 11.76C8.39125 11.76 8.1375 11.2525 8.1375 10.4475C8.1375 9.24 8.89 8.33875 9.7475 8.33875C10.5 8.33875 10.85 8.89 10.85 9.59875C10.85 10.3512 10.3512 11.4275 10.0975 12.46C9.94875 13.3175 10.5525 14.07 11.4275 14.07C12.985 14.07 14.1925 12.4075 14.1925 10.0625C14.1925 7.9625 12.6875 6.5275 10.5262 6.5275C8.05875 6.5275 6.60625 8.365 6.60625 10.2987C6.60625 11.0512 6.85125 11.8125 7.25375 12.3112C7.3325 12.3637 7.3325 12.4337 7.30625 12.565L7.0525 13.5187C7.0525 13.6675 6.95625 13.72 6.8075 13.615C5.6875 13.125 5.04 11.5325 5.04 10.2462C5.04 7.48125 7 4.97 10.78 4.97C13.79 4.97 16.135 7.13125 16.135 10.0012C16.135 13.0112 14.2712 15.4262 11.6025 15.4262C10.7537 15.4262 9.9225 14.9712 9.625 14.4375L9.03875 16.5112C8.8375 17.2637 8.28625 18.27 7.91 18.8737V18.8475Z" fill="white"/>
</svg>
